HIERARCHY
ROOT mixamorig:Hips
{
	OFFSET 0.000000 201.639420 0.000000
	CHANNELS 6 Xposition Yposition Zposition Xrotation Yrotation Zrotation
	JOINT mixamorig:Spine
	{
		OFFSET 0.006200 19.524994 -2.481800
		CHANNELS 3 Xrotation Yrotation Zrotation
		JOINT mixamorig:Spine1
		{
			OFFSET -0.000900 22.835007 -2.825400
			CHANNELS 3 Xrotation Yrotation Zrotation
			JOINT mixamorig:Spine2
			{
				OFFSET -0.020600 26.552490 -3.193300
				CHANNELS 3 Xrotation Yrotation Zrotation
				JOINT mixamorig:Neck
				{
					OFFSET -0.060000 30.701813 1.352200
					CHANNELS 3 Xrotation Yrotation Zrotation
					JOINT mixamorig:Head
					{
						OFFSET -0.087200 22.547607 3.670900
						CHANNELS 3 Xrotation Yrotation Zrotation
						JOINT mixamorig:HeadTop_End
						{
							OFFSET -0.830600 40.355194 7.893500
							CHANNELS 3 Xrotation Yrotation Zrotation
							End Site
							{
								OFFSET 0.000000 30.592346 0.000000
							}
						}
						JOINT mixamorig:RightEye
						{
							OFFSET -6.302100 18.118591 16.197100
							CHANNELS 3 Xrotation Yrotation Zrotation
							End Site
							{
								OFFSET 0.000000 30.592346 0.000000
							}
						}
						JOINT mixamorig:LeftEye
						{
							OFFSET 6.741500 18.382690 16.401899
							CHANNELS 3 Xrotation Yrotation Zrotation
							End Site
							{
								OFFSET 0.000000 30.592346 0.000000
							}
						}
					}
				}
				JOINT mixamorig:LeftShoulder
				{
					OFFSET 11.924900 18.230499 1.425400
					CHANNELS 3 Xrotation Yrotation Zrotation
					JOINT mixamorig:LeftArm
					{
						OFFSET 25.435989 -0.697632 -5.229300
						CHANNELS 3 Xrotation Yrotation Zrotation
						JOINT mixamorig:LeftForeArm
						{
							OFFSET 54.684776 0.000000 0.000000
							CHANNELS 3 Xrotation Yrotation Zrotation
							JOINT mixamorig:LeftHand
							{
								OFFSET 55.098175 0.000000 0.000000
								CHANNELS 3 Xrotation Yrotation Zrotation
								JOINT mixamorig:LeftHandMiddle1
								{
									OFFSET 23.369751 0.000000 0.000000
									CHANNELS 3 Xrotation Yrotation Zrotation
									JOINT mixamorig:LeftHandMiddle2
									{
										OFFSET 6.378677 0.000000 0.000000
										CHANNELS 3 Xrotation Yrotation Zrotation
										JOINT mixamorig:LeftHandMiddle3
										{
											OFFSET 6.148331 0.000000 0.000000
											CHANNELS 3 Xrotation Yrotation Zrotation
											JOINT mixamorig:LeftHandMiddle4
											{
												OFFSET 6.582504 0.000000 0.000000
												CHANNELS 3 Xrotation Yrotation Zrotation
												End Site
												{
													OFFSET -1.168900 6.395691 1.028606
												}
											}
										}
									}
								}
								JOINT mixamorig:LeftHandThumb1
								{
									OFFSET 7.235672 -3.848206 5.434273
									CHANNELS 3 Xrotation Yrotation Zrotation
									JOINT mixamorig:LeftHandThumb2
									{
										OFFSET 6.568451 -3.792297 3.792300
										CHANNELS 3 Xrotation Yrotation Zrotation
										JOINT mixamorig:LeftHandThumb3
										{
											OFFSET 6.063080 -3.500519 3.500518
											CHANNELS 3 Xrotation Yrotation Zrotation
											JOINT mixamorig:LeftHandThumb4
											{
												OFFSET 4.793182 -2.767334 2.767349
												CHANNELS 3 Xrotation Yrotation Zrotation
												End Site
												{
													OFFSET 0.101639 6.054260 1.275483
												}
											}
										}
									}
								}
								JOINT mixamorig:LeftHandIndex1
								{
									OFFSET 23.101074 -0.309540 4.992809
									CHANNELS 3 Xrotation Yrotation Zrotation
									JOINT mixamorig:LeftHandIndex2
									{
										OFFSET 6.226883 0.000000 0.000000
										CHANNELS 3 Xrotation Yrotation Zrotation
										JOINT mixamorig:LeftHandIndex3
										{
											OFFSET 6.094330 0.000000 0.000000
											CHANNELS 3 Xrotation Yrotation Zrotation
											JOINT mixamorig:LeftHandIndex4
											{
												OFFSET 5.482605 0.000000 0.000000
												CHANNELS 3 Xrotation Yrotation Zrotation
												End Site
												{
													OFFSET -1.427902 5.233032 0.797164
												}
											}
										}
									}
								}
								JOINT mixamorig:LeftHandRing1
								{
									OFFSET 22.299240 0.021149 -3.964172
									CHANNELS 3 Xrotation Yrotation Zrotation
									JOINT mixamorig:LeftHandRing2
									{
										OFFSET 6.321869 0.000000 0.000000
										CHANNELS 3 Xrotation Yrotation Zrotation
										JOINT mixamorig:LeftHandRing3
										{
											OFFSET 5.899796 0.000000 0.000000
											CHANNELS 3 Xrotation Yrotation Zrotation
											JOINT mixamorig:LeftHandRing4
											{
												OFFSET 6.517899 0.000000 0.000000
												CHANNELS 3 Xrotation Yrotation Zrotation
												End Site
												{
													OFFSET -1.637299 6.232208 0.980890
												}
											}
										}
									}
								}
								JOINT mixamorig:LeftHandPinky1
								{
									OFFSET 20.463791 -0.302338 -8.562233
									CHANNELS 3 Xrotation Yrotation Zrotation
									JOINT mixamorig:LeftHandPinky2
									{
										OFFSET 6.908646 0.000000 0.000000
										CHANNELS 3 Xrotation Yrotation Zrotation
										JOINT mixamorig:LeftHandPinky3
										{
											OFFSET 4.622849 0.000000 0.000000
											CHANNELS 3 Xrotation Yrotation Zrotation
											JOINT mixamorig:LeftHandPinky4
											{
												OFFSET 5.216080 0.000000 0.000000
												CHANNELS 3 Xrotation Yrotation Zrotation
												End Site
												{
													OFFSET -0.606308 5.116241 0.814926
												}
											}
										}
									}
								}
							}
						}
					}
				}
				JOINT mixamorig:RightShoulder
				{
					OFFSET -12.001300 18.284088 1.348900
					CHANNELS 3 Xrotation Yrotation Zrotation
					JOINT mixamorig:RightArm
					{
						OFFSET -25.308500 -0.751312 -5.164599
						CHANNELS 3 Xrotation Yrotation Zrotation
						JOINT mixamorig:RightForeArm
						{
							OFFSET -54.684429 0.000000 0.000000
							CHANNELS 3 Xrotation Yrotation Zrotation
							JOINT mixamorig:RightHand
							{
								OFFSET -55.150291 0.000000 0.000000
								CHANNELS 3 Xrotation Yrotation Zrotation
								JOINT mixamorig:RightHandMiddle1
								{
									OFFSET -23.317566 0.000000 0.000000
									CHANNELS 3 Xrotation Yrotation Zrotation
									JOINT mixamorig:RightHandMiddle2
									{
										OFFSET -6.378403 0.000000 0.000000
										CHANNELS 3 Xrotation Yrotation Zrotation
										JOINT mixamorig:RightHandMiddle3
										{
											OFFSET -6.148193 0.000000 0.000000
											CHANNELS 3 Xrotation Yrotation Zrotation
											JOINT mixamorig:RightHandMiddle4
											{
												OFFSET -6.583389 0.000000 0.000000
												CHANNELS 3 Xrotation Yrotation Zrotation
												End Site
												{
													OFFSET 1.171692 6.395905 1.029786
												}
											}
										}
									}
								}
								JOINT mixamorig:RightHandThumb1
								{
									OFFSET -7.190521 -3.860474 5.435846
									CHANNELS 3 Xrotation Yrotation Zrotation
									JOINT mixamorig:RightHandThumb2
									{
										OFFSET -6.567429 -3.791718 3.791708
										CHANNELS 3 Xrotation Yrotation Zrotation
										JOINT mixamorig:RightHandThumb3
										{
											OFFSET -6.062469 -3.500153 3.500166
											CHANNELS 3 Xrotation Yrotation Zrotation
											JOINT mixamorig:RightHandThumb4
											{
												OFFSET -4.792618 -2.767029 2.767022
												CHANNELS 3 Xrotation Yrotation Zrotation
												End Site
												{
													OFFSET -0.100327 6.053253 1.276754
												}
											}
										}
									}
								}
								JOINT mixamorig:RightHandIndex1
								{
									OFFSET -23.048981 -0.310791 4.992554
									CHANNELS 3 Xrotation Yrotation Zrotation
									JOINT mixamorig:RightHandIndex2
									{
										OFFSET -6.227539 0.000000 0.000000
										CHANNELS 3 Xrotation Yrotation Zrotation
										JOINT mixamorig:RightHandIndex3
										{
											OFFSET -6.095047 0.000000 0.000000
											CHANNELS 3 Xrotation Yrotation Zrotation
											JOINT mixamorig:RightHandIndex4
											{
												OFFSET -5.484772 0.000000 0.000000
												CHANNELS 3 Xrotation Yrotation Zrotation
												End Site
												{
													OFFSET 1.420593 5.237305 0.797056
												}
											}
										}
									}
								}
								JOINT mixamorig:RightHandRing1
								{
									OFFSET -22.246323 0.020569 -3.963762
									CHANNELS 3 Xrotation Yrotation Zrotation
									JOINT mixamorig:RightHandRing2
									{
										OFFSET -6.322128 0.000000 0.000000
										CHANNELS 3 Xrotation Yrotation Zrotation
										JOINT mixamorig:RightHandRing3
										{
											OFFSET -5.900024 0.000000 0.000000
											CHANNELS 3 Xrotation Yrotation Zrotation
											JOINT mixamorig:RightHandRing4
											{
												OFFSET -6.518356 0.000000 0.000000
												CHANNELS 3 Xrotation Yrotation Zrotation
												End Site
												{
													OFFSET 1.636398 6.232697 0.982186
												}
											}
										}
									}
								}
								JOINT mixamorig:RightHandPinky1
								{
									OFFSET -20.411011 -0.303314 -8.561701
									CHANNELS 3 Xrotation Yrotation Zrotation
									JOINT mixamorig:RightHandPinky2
									{
										OFFSET -6.907349 0.000000 0.000000
										CHANNELS 3 Xrotation Yrotation Zrotation
										JOINT mixamorig:RightHandPinky3
										{
											OFFSET -4.623840 0.000000 0.000000
											CHANNELS 3 Xrotation Yrotation Zrotation
											JOINT mixamorig:RightHandPinky4
											{
												OFFSET -5.218353 0.000000 0.000000
												CHANNELS 3 Xrotation Yrotation Zrotation
												End Site
												{
													OFFSET 0.602097 5.118835 0.816273
												}
											}
										}
									}
								}
							}
						}
					}
				}
			}
		}
	}
	JOINT mixamorig:LeftUpLeg
	{
		OFFSET 18.168400 -13.561905 -0.039000
		CHANNELS 3 Xrotation Yrotation Zrotation
		JOINT mixamorig:LeftLeg
		{
			OFFSET 0.577358 -80.825211 -3.695000
			CHANNELS 3 Xrotation Yrotation Zrotation
			JOINT mixamorig:LeftFoot
			{
				OFFSET -0.577356 -83.370262 -6.520700
				CHANNELS 3 Xrotation Yrotation Zrotation
				JOINT mixamorig:LeftToeBase
				{
					OFFSET 0.750401 -20.798306 25.135401
					CHANNELS 3 Xrotation Yrotation Zrotation
					JOINT mixamorig:LeftToe_End
					{
						OFFSET -0.000500 0.001200 19.917799
						CHANNELS 3 Xrotation Yrotation Zrotation
						End Site
						{
							OFFSET 0.000000 19.917805 0.000000
						}
					}
				}
			}
		}
	}
	JOINT mixamorig:RightUpLeg
	{
		OFFSET -18.162500 -13.585098 -0.041000
		CHANNELS 3 Xrotation Yrotation Zrotation
		JOINT mixamorig:RightLeg
		{
			OFFSET -0.595024 -80.945297 -3.631900
			CHANNELS 3 Xrotation Yrotation Zrotation
			JOINT mixamorig:RightFoot
			{
				OFFSET 0.595024 -83.218193 -6.561200
				CHANNELS 3 Xrotation Yrotation Zrotation
				JOINT mixamorig:RightToeBase
				{
					OFFSET -0.753601 -20.807106 25.115000
					CHANNELS 3 Xrotation Yrotation Zrotation
					JOINT mixamorig:RightToe_End
					{
						OFFSET 0.000299 0.001700 19.918200
						CHANNELS 3 Xrotation Yrotation Zrotation
						End Site
						{
							OFFSET 0.000000 19.918203 0.000000
						}
					}
				}
			}
		}
	}
}
MOTION
Frames: 4
Frame Time: 0.033333
28.053049 35.691498 23.752060 77.037109 -26.394286 -6.859485 4.314635 1.122878 -0.485162 3.899590 9.046167 4.317384 3.948707 8.737898 4.588052 -18.992521 0.929728 -1.302837 -19.078180 9.083234 4.250007 0.000003 -0.000000 -0.000000 0.000003 -0.000000 -0.000000 0.000003 -0.000000 -0.000000 -2.074203 3.644949 23.062965 -81.874837 0.881284 -45.307015 -0.000159 -99.527338 -0.000166 -130.551662 -13.827969 12.324597 -0.448694 2.617837 -25.627450 1.913984 4.331717 -47.660558 3.507429 5.362700 -66.351080 -0.000001 -0.000002 0.000003 27.395134 -21.226635 -0.599560 12.958944 30.615141 3.752115 -4.947588 18.529847 17.743317 -0.000002 0.000004 0.000003 -2.338007 -3.240484 -20.334361 1.979202 4.390106 -48.518204 1.338382 3.728198 -39.483934 0.000000 0.000000 -0.000001 -2.093581 -0.036817 -29.147259 1.826088 4.250212 -46.485735 2.881935 5.043999 -59.462309 0.000001 -0.000001 -0.000000 -3.244259 -1.577129 -31.161888 0.242528 1.669796 -16.527279 2.496225 4.796484 -54.967365 0.000000 -0.000001 0.000000 2.254042 14.058531 -12.379269 -83.064902 24.193160 34.553500 0.000720 93.633752 -0.000718 21.343470 23.243318 4.310803 3.966344 -7.217234 60.127057 6.305415 -4.356362 110.747959 0.225339 -1.432565 17.877808 0.000001 -0.000001 0.000001 7.257018 -7.626574 9.403039 18.020114 -21.618949 -19.113455 -3.040816 -50.039899 -35.049669 -0.000002 -0.000001 -0.000001 -0.865842 2.077498 10.996757 1.192080 -3.113542 41.892545 1.078836 -2.982661 39.762937 0.000001 0.000000 -0.000003 -3.755679 -2.475009 57.969441 5.478289 -4.584382 100.165919 1.421528 -3.351368 45.959960 -0.000003 -0.000000 0.000001 -3.929889 -3.971198 69.083627 4.469092 -4.653372 87.682929 2.438096 -4.095512 61.517499 0.000003 0.000001 -0.000000 0.039875 15.050074 10.241383 24.096749 5.583006 4.711421 -8.230009 18.208572 5.488112 -57.398321 9.195491 -14.865157 -0.000003 0.000000 0.000000 -88.755795 -9.227677 -46.528157 137.932761 5.119107 -4.414814 -15.683013 -0.957602 29.778791 -24.262652 -8.265856 21.873884 -0.000000 0.000001 0.000002 
27.979002 36.911469 24.687744 77.348955 -25.448392 -6.614537 4.364256 1.202917 -0.911614 3.988503 8.796639 3.928640 4.015303 8.491757 4.167785 -19.296449 1.122395 -1.515504 -19.689719 8.764086 4.580190 0.000001 0.000000 0.000000 0.000001 0.000000 0.000000 0.000001 0.000000 0.000000 -2.125021 3.753378 22.885104 -83.264767 -0.339978 -46.443162 -0.000213 -99.087822 -0.000257 -129.206224 -14.281821 13.031929 -0.448747 2.617667 -25.626931 1.914358 4.332084 -47.665513 3.507490 5.362715 -66.351668 -0.000000 0.000001 -0.000002 27.492256 -20.945554 -0.464267 12.958885 30.615083 3.752103 -4.947135 18.535322 17.744577 0.000001 -0.000000 -0.000001 -2.338319 -3.240295 -20.336888 1.979162 4.390061 -48.517692 1.338605 3.728466 -39.487441 0.000000 -0.000000 0.000000 -2.093621 -0.036851 -29.147440 1.826256 4.250389 -46.487931 2.882000 5.044027 -59.462985 0.000001 0.000000 0.000002 -3.243809 -1.585626 -31.128792 0.242824 1.670821 -16.537553 2.494956 4.795644 -54.952355 -0.000001 0.000001 -0.000000 2.352790 13.983267 -13.361100 -82.511902 22.805336 32.707310 -0.000478 94.442207 0.000300 20.830474 22.486224 3.293717 3.644884 -7.053351 59.465410 6.297430 -4.359356 110.642774 0.223916 -1.428128 17.820691 -0.000002 -0.000003 0.000002 7.289393 -7.548100 9.445539 17.939104 -21.692754 -19.134341 -3.009636 -50.037505 -35.015638 -0.000002 0.000001 0.000001 -0.836171 2.242991 10.371132 1.194725 -3.116477 41.941231 1.107731 -3.017018 40.315260 0.000001 0.000001 -0.000004 -3.774737 -2.345051 57.172044 5.493769 -4.581589 100.359494 1.415766 -3.345795 45.861295 -0.000001 -0.000000 0.000000 -3.924978 -3.982849 69.153220 4.460608 -4.653029 87.578427 2.425091 -4.088455 61.335160 0.000002 -0.000001 -0.000002 -0.909710 15.214222 10.606645 23.440514 5.609501 4.880855 -4.611701 19.082613 3.988417 -53.357626 7.655378 -12.392506 0.000000 -0.000000 0.000001 -89.093773 -10.226243 -47.199759 137.329669 5.508264 -4.819171 -16.412096 -0.334571 30.205962 -25.112883 -9.015930 22.950989 -0.000000 -0.000001 0.000002 
27.817970 38.430283 26.089737 77.975666 -24.018724 -6.616531 4.361305 1.369451 -1.140474 3.977115 8.455052 3.687435 3.973929 8.152889 3.890739 -19.824192 1.283203 -1.801512 -20.318460 8.163055 4.773884 0.000001 0.000000 0.000000 0.000001 0.000000 0.000000 0.000001 0.000000 0.000000 -2.175786 3.911768 22.480147 -84.896594 -1.257029 -48.358040 -0.000586 -98.640479 -0.000655 -127.645608 -14.352539 13.657358 -0.448844 2.617388 -25.626306 1.915079 4.332718 -47.674881 3.508363 5.363094 -66.360991 -0.000002 0.000001 0.000003 27.636907 -20.689341 -0.309447 12.973216 30.619161 3.750628 -4.946312 18.544961 17.746814 0.000001 0.000000 -0.000000 -2.338678 -3.240193 -20.339547 1.979131 4.390028 -48.517265 1.339598 3.729667 -39.502720 -0.000001 -0.000000 0.000000 -2.093692 -0.036970 -29.147487 1.826992 4.251071 -46.497834 2.882885 5.044535 -59.473018 -0.000000 0.000000 0.000001 -3.243751 -1.602886 -31.066975 0.242368 1.669238 -16.521741 2.492606 4.793988 -54.924201 -0.000001 -0.000000 0.000000 2.347398 13.296614 -14.454086 -81.701917 21.588184 30.555186 -0.000594 95.536322 0.000568 20.060870 21.420762 2.059922 3.374503 -6.910429 58.837066 6.294235 -4.360565 110.600639 0.224197 -1.429012 17.832121 -0.000001 -0.000002 -0.000001 7.323389 -7.465711 9.490420 17.864227 -21.760820 -19.153790 -2.974813 -50.034838 -34.977696 -0.000002 0.000000 0.000001 -0.836212 2.401027 10.091591 1.211384 -3.134893 42.246595 1.131572 -3.044844 40.766025 -0.000001 0.000001 -0.000000 -3.811163 -2.225438 56.533237 5.506521 -4.579234 100.519423 1.413770 -3.343864 45.827076 -0.000000 0.000001 0.000000 -3.914995 -3.965619 69.002976 4.464775 -4.653203 87.629831 2.362234 -4.053550 60.449831 -0.000003 -0.000001 0.000002 -3.599376 15.232785 11.992768 24.803422 6.080880 5.224769 -1.464958 18.386594 1.504355 -40.011504 1.716506 -0.201548 -0.000001 -0.000001 0.000003 -89.424306 -11.898485 -48.232105 136.266031 5.952848 -5.012358 -16.869900 -0.138682 30.560138 -25.694705 -9.545361 23.716900 -0.000000 -0.000001 0.000000 
27.461691 40.067535 28.053543 78.930807 -22.294391 -6.854988 4.225746 1.564641 -1.186820 3.775186 8.072508 3.540175 3.734975 7.776962 3.707311 -20.493084 1.408909 -2.124134 -20.745055 7.323465 4.860530 0.000003 0.000000 0.000000 0.000003 0.000000 0.000000 0.000003 0.000000 0.000000 -2.189561 4.017090 21.720292 -86.526660 -2.075926 -50.810375 0.000552 -98.050255 0.000547 -126.022427 -14.106223 14.056975 -0.448985 2.617040 -25.625570 1.918560 4.335893 -47.721060 3.513607 5.365367 -66.417067 0.000001 0.000000 0.000002 27.964429 -20.474204 -0.024951 13.060158 30.648514 3.742103 -4.952148 18.590143 17.771947 0.000002 -0.000000 0.000003 -2.339095 -3.240182 -20.342346 1.979110 4.390031 -48.516961 1.345561 3.736860 -39.594347 -0.000001 -0.000000 0.000000 -2.093799 -0.037176 -29.147409 1.830620 4.254502 -46.546803 2.888180 5.047639 -59.533274 -0.000000 -0.000001 0.000003 -3.254686 -1.653962 -30.952788 0.241324 1.665724 -16.486005 2.491829 4.793440 -54.914905 0.000000 -0.000000 0.000000 2.291310 12.318822 -15.717505 -80.615719 20.348027 28.077098 0.000310 96.633100 -0.000404 18.989512 20.402461 0.824052 3.091806 -6.753726 58.158931 6.297740 -4.359244 110.646763 0.225183 -1.432052 17.871350 -0.000001 -0.000001 0.000001 7.358828 -7.379706 9.537448 17.795913 -21.822808 -19.171670 -2.936610 -50.031877 -34.936117 0.000001 -0.000000 -0.000001 -0.902826 2.626520 10.369723 1.231477 -3.156838 42.612850 1.171235 -3.090179 41.507165 0.000001 0.000000 0.000000 -3.856878 -2.096767 55.889560 5.521669 -4.576405 100.709282 1.419112 -3.349040 45.918559 -0.000000 0.000001 0.000000 -3.864995 -3.986271 69.012908 4.466565 -4.653274 87.651626 2.309852 -4.023473 59.706092 0.000002 0.000001 -0.000001 -7.646132 14.960891 14.071975 27.546634 6.723192 5.697535 1.548067 17.113018 -1.622454 -11.725556 3.926022 19.837248 -0.000000 0.000002 0.000003 -89.589112 -14.158599 -49.570364 134.616950 6.015111 -4.944150 -17.093006 0.393401 30.866769 -26.168845 -9.918586 24.243937 0.000000 0.000001 -0.000001 
